<svg width="309" height="71" viewBox="0 0 309 71" fill="none" xmlns="http://www.w3.org/2000/svg">
<g clip-path="url(#clip0_646_2388)">
<path d="M52 12V5" stroke="#14289B" stroke-width="10" stroke-linecap="round"/>
<path d="M8 61V53" stroke="#5D6FFF" stroke-width="10" stroke-linecap="round"/>
<path d="M111.6 57H78.481V8.68652H111.6V18.356H88.1504V28.0254H104.019V37.6948H88.1504V47.3306H111.6V57Z" fill="url(#paint0_linear_646_2388)"/>
<path d="M147.919 28.0928L141.181 34.8647C140.844 33.9214 140.383 33.0791 139.799 32.3379C139.215 31.5742 138.553 30.9341 137.812 30.4175C137.093 29.9009 136.307 29.5078 135.453 29.2383C134.6 28.9688 133.724 28.834 132.825 28.834C131.567 28.834 130.377 29.0923 129.254 29.6089C128.153 30.1255 127.188 30.8555 126.356 31.7988C125.548 32.7197 124.908 33.8203 124.436 35.1006C123.964 36.3809 123.729 37.7959 123.729 39.3457C123.729 40.6035 123.964 41.7827 124.436 42.8833C124.908 43.9839 125.548 44.9497 126.356 45.7808C127.188 46.6118 128.153 47.2632 129.254 47.7349C130.377 48.2065 131.567 48.4424 132.825 48.4424C133.724 48.4424 134.588 48.3188 135.419 48.0718C136.25 47.8247 137.025 47.4766 137.744 47.0273C138.485 46.5557 139.137 45.9941 139.698 45.3428C140.282 44.6689 140.754 43.9277 141.113 43.1191L147.852 49.8911C146.998 51.104 146.01 52.1934 144.887 53.1592C143.786 54.125 142.584 54.9448 141.282 55.6187C140.001 56.2925 138.643 56.7979 137.205 57.1348C135.79 57.4941 134.33 57.6738 132.825 57.6738C130.287 57.6738 127.895 57.2021 125.649 56.2588C123.425 55.293 121.471 53.979 119.787 52.3169C118.125 50.6548 116.811 48.7119 115.845 46.4883C114.879 44.2646 114.396 41.8838 114.396 39.3457C114.396 36.583 114.879 34 115.845 31.5967C116.811 29.1934 118.125 27.1045 119.787 25.3301C121.471 23.5332 123.425 22.1182 125.649 21.085C127.895 20.0518 130.287 19.5352 132.825 19.5352C134.33 19.5352 135.801 19.7261 137.239 20.1079C138.699 20.4897 140.08 21.0513 141.383 21.7925C142.708 22.5112 143.921 23.3984 145.021 24.4541C146.145 25.5098 147.11 26.7227 147.919 28.0928Z" fill="url(#paint1_linear_646_2388)"/>
<path d="M186.765 38.6382C186.765 41.3335 186.282 43.8491 185.316 46.1851C184.351 48.4985 183.037 50.5088 181.375 52.2158C179.712 53.9004 177.758 55.2368 175.512 56.2251C173.289 57.1909 170.896 57.6738 168.336 57.6738C165.798 57.6738 163.406 57.1909 161.16 56.2251C158.936 55.2368 156.982 53.9004 155.297 52.2158C153.635 50.5088 152.321 48.4985 151.355 46.1851C150.39 43.8491 149.907 41.3335 149.907 38.6382C149.907 35.8979 150.39 33.3599 151.355 31.0239C152.321 28.688 153.635 26.6777 155.297 24.9932C156.982 23.2861 158.936 21.9497 161.16 20.9839C163.406 20.0181 165.798 19.5352 168.336 19.5352C170.896 19.5352 173.289 19.9956 175.512 20.9165C177.758 21.8149 179.712 23.1064 181.375 24.791C183.037 26.4531 184.351 28.4634 185.316 30.8218C186.282 33.1577 186.765 35.7632 186.765 38.6382ZM177.5 38.6382C177.5 37.1558 177.253 35.8193 176.759 34.6289C176.287 33.416 175.636 32.3828 174.805 31.5293C173.974 30.6533 172.997 29.9907 171.874 29.5415C170.773 29.0698 169.594 28.834 168.336 28.834C167.078 28.834 165.888 29.0698 164.765 29.5415C163.664 29.9907 162.698 30.6533 161.867 31.5293C161.059 32.3828 160.418 33.416 159.947 34.6289C159.475 35.8193 159.239 37.1558 159.239 38.6382C159.239 40.0308 159.475 41.3223 159.947 42.5127C160.418 43.7031 161.059 44.7363 161.867 45.6123C162.698 46.4883 163.664 47.1846 164.765 47.7012C165.888 48.1953 167.078 48.4424 168.336 48.4424C169.594 48.4424 170.773 48.2065 171.874 47.7349C172.997 47.2632 173.974 46.6006 174.805 45.7471C175.636 44.8936 176.287 43.8604 176.759 42.6475C177.253 41.4346 177.5 40.0981 177.5 38.6382Z" fill="url(#paint2_linear_646_2388)"/>
<path d="M226.723 57H224.5L220.928 52.0474C220.052 52.8335 219.12 53.5747 218.132 54.271C217.166 54.9448 216.144 55.54 215.066 56.0566C213.988 56.5508 212.876 56.9438 211.73 57.2358C210.607 57.5278 209.462 57.6738 208.294 57.6738C205.756 57.6738 203.364 57.2021 201.118 56.2588C198.894 55.293 196.94 53.9678 195.255 52.2832C193.593 50.5762 192.279 48.5659 191.313 46.2524C190.348 43.9165 189.865 41.3784 189.865 38.6382C189.865 35.9204 190.348 33.3936 191.313 31.0576C192.279 28.7217 193.593 26.7002 195.255 24.9932C196.94 23.2861 198.894 21.9497 201.118 20.9839C203.364 20.0181 205.756 19.5352 208.294 19.5352C209.103 19.5352 209.934 19.6025 210.787 19.7373C211.663 19.8721 212.505 20.0967 213.314 20.4111C214.145 20.7031 214.92 21.0962 215.639 21.5903C216.357 22.0845 216.964 22.6909 217.458 23.4097V6.56396H226.723V57ZM217.458 38.6382C217.458 37.3804 217.211 36.1675 216.717 34.9995C216.245 33.8091 215.594 32.7646 214.763 31.8662C213.932 30.9453 212.955 30.2153 211.832 29.6763C210.731 29.1147 209.552 28.834 208.294 28.834C207.036 28.834 205.846 29.0586 204.723 29.5078C203.622 29.957 202.656 30.6084 201.825 31.4619C201.017 32.293 200.376 33.3149 199.905 34.5278C199.433 35.7407 199.197 37.1108 199.197 38.6382C199.197 39.9634 199.433 41.2212 199.905 42.4116C200.376 43.6021 201.017 44.6465 201.825 45.5449C202.656 46.4434 203.622 47.1509 204.723 47.6675C205.846 48.1841 207.036 48.4424 208.294 48.4424C209.552 48.4424 210.731 48.1729 211.832 47.6338C212.955 47.0723 213.932 46.3423 214.763 45.4438C215.594 44.5229 216.245 43.4785 216.717 42.3105C217.211 41.1201 217.458 39.896 217.458 38.6382Z" fill="url(#paint3_linear_646_2388)"/>
<path d="M244.613 11.1123C244.613 11.9658 244.445 12.7632 244.108 13.5044C243.793 14.2456 243.355 14.897 242.794 15.4585C242.232 15.9976 241.57 16.4355 240.806 16.7725C240.065 17.0869 239.268 17.2441 238.414 17.2441C237.561 17.2441 236.752 17.0869 235.988 16.7725C235.247 16.4355 234.596 15.9976 234.034 15.4585C233.495 14.897 233.057 14.2456 232.72 13.5044C232.406 12.7632 232.249 11.9658 232.249 11.1123C232.249 10.2812 232.406 9.49512 232.72 8.75391C233.057 7.99023 233.495 7.33887 234.034 6.7998C234.596 6.23828 235.247 5.80029 235.988 5.48584C236.752 5.14893 237.561 4.98047 238.414 4.98047C239.268 4.98047 240.065 5.14893 240.806 5.48584C241.57 5.80029 242.232 6.23828 242.794 6.7998C243.355 7.33887 243.793 7.99023 244.108 8.75391C244.445 9.49512 244.613 10.2812 244.613 11.1123ZM243.03 57H233.765V20.9165H243.03V57Z" fill="url(#paint4_linear_646_2388)"/>
<path d="M261.762 57H252.564V30.0806H248.083V20.9165H252.564V19.1982C252.564 16.9746 252.98 14.8857 253.811 12.9316C254.665 10.9775 255.821 9.28174 257.281 7.84424C258.764 6.38428 260.482 5.23877 262.436 4.40771C264.39 3.5542 266.479 3.12744 268.703 3.12744H275.609V12.2915H268.703C267.714 12.2915 266.793 12.4712 265.94 12.8306C265.109 13.1675 264.379 13.6504 263.75 14.2793C263.144 14.8857 262.661 15.6157 262.301 16.4692C261.942 17.3003 261.762 18.21 261.762 19.1982V20.9165H273.049V30.0806H261.762V57Z" fill="url(#paint5_linear_646_2388)"/>
<path d="M289 71L285.852 61.481L290.973 61.5483C291.871 61.5483 292.736 61.4023 293.567 61.1104C294.398 60.8184 295.162 60.4141 295.858 59.8975C296.577 59.3809 297.206 58.7632 297.745 58.0444C298.284 57.3481 298.722 56.5845 299.059 55.7534C298.048 56.1802 297.015 56.6069 295.959 57.0337C294.926 57.4604 293.881 57.6738 292.826 57.6738C290.602 57.6738 288.513 57.2808 286.559 56.4946C284.605 55.7085 282.887 54.5967 281.404 53.1592C279.944 51.6992 278.788 49.936 277.934 47.8696C277.103 45.7808 276.688 43.4448 276.688 40.8618V20.9165H285.852V40.8618C285.852 42.1421 286.031 43.2651 286.391 44.231C286.772 45.1743 287.278 45.9717 287.907 46.623C288.536 47.252 289.266 47.7236 290.097 48.0381C290.95 48.3525 291.86 48.5098 292.826 48.5098C293.769 48.5098 294.656 48.2964 295.487 47.8696C296.341 47.4204 297.082 46.8364 297.711 46.1177C298.34 45.3989 298.834 44.5903 299.193 43.6919C299.553 42.771 299.732 41.8276 299.732 40.8618V20.9165H308.998V52.4517C308.975 54.9897 308.481 57.3706 307.515 59.5942C306.549 61.8179 305.224 63.7607 303.54 65.4229C301.877 67.085 299.935 68.3989 297.711 69.3647C295.487 70.3306 293.038 71 290.5 71H289Z" fill="url(#paint6_linear_646_2388)"/>
<path d="M37.8894 43H21.9556C10.18 43 0.257901 33.744 0.00514161 21.9947C-0.0574938 19.1321 0.452687 16.2857 1.50581 13.6223C2.55893 10.959 4.13383 8.53209 6.13828 6.48382C8.14273 4.43556 10.5364 2.80708 13.1793 1.69374C15.8221 0.580402 18.6608 0.004582 21.5294 0H51.1171C52.6778 0.00131133 54.1741 0.621086 55.2773 1.72312C56.3804 2.82515 57 4.31927 57 5.87713C57 7.43584 56.3797 8.93071 55.2755 10.0329C54.1713 11.1351 52.6737 11.7543 51.1122 11.7543H21.8119C16.0034 11.7543 11.3149 16.5035 11.7758 22.2816C11.9763 24.7256 13.091 27.0047 14.8982 28.6657C16.7054 30.3266 19.0728 31.2477 21.5294 31.2457H37.8844V31.2705V42.9753L37.8894 43Z" fill="#14289B"/>
<path d="M38.057 59H8.88577C7.32477 59 5.8277 58.3664 4.7239 57.2386C3.62011 56.1108 3 54.5812 3 52.9862C3 51.3912 3.62011 49.8616 4.7239 48.7338C5.8277 47.606 7.32477 46.9724 8.88577 46.9724H38.166C43.9725 46.9724 48.6593 42.1127 48.1986 36.2002C47.9984 33.7029 46.8869 31.3736 45.0845 29.6746C43.2821 27.9755 40.9205 27.0307 38.4682 27.0276H22.1188C22.1143 27.0303 22.1092 27.0317 22.104 27.0317C22.0988 27.0317 22.0936 27.0303 22.0891 27.0276V15.0253C22.0903 15.0182 22.0939 15.0117 22.0994 15.007C22.1048 15.0024 22.1117 14.9999 22.1188 15H38.4682C41.3366 15.0033 44.1754 15.5916 46.8185 16.7302C49.4615 17.8688 51.8556 19.535 53.8604 21.631C55.8652 23.727 57.4404 26.2108 58.4938 28.9368C59.5472 31.6628 60.0575 34.5761 59.9949 37.5062C59.7323 49.5288 49.8137 59 38.057 59Z" fill="#5D6FFF"/>
<path d="M45.1136 38.9235C46.0543 34.9657 43.6085 30.9948 39.6507 30.0541C35.693 29.1134 31.722 31.5592 30.7814 35.517C29.8407 39.4747 32.2865 43.4457 36.2442 44.3864C40.202 45.327 44.1729 42.8812 45.1136 38.9235Z" fill="#5D6FFF"/>
<path d="M21.5 29C25.6421 29 29 25.6421 29 21.5C29 17.3579 25.6421 14 21.5 14C17.3579 14 14 17.3579 14 21.5C14 25.6421 17.3579 29 21.5 29Z" fill="#14289B"/>
<path d="M3 61H294L289 71H3V61Z" fill="url(#paint7_linear_646_2388)"/>
</g>
<defs>
<linearGradient id="paint0_linear_646_2388" x1="74" y1="6" x2="313" y2="75" gradientUnits="userSpaceOnUse">
<stop stop-color="#14289B"/>
<stop offset="1" stop-color="#5D6FFF"/>
</linearGradient>
<linearGradient id="paint1_linear_646_2388" x1="74" y1="5.99995" x2="313" y2="75" gradientUnits="userSpaceOnUse">
<stop stop-color="#14289B"/>
<stop offset="1" stop-color="#5D6FFF"/>
</linearGradient>
<linearGradient id="paint2_linear_646_2388" x1="74.0002" y1="5.99994" x2="313" y2="75" gradientUnits="userSpaceOnUse">
<stop stop-color="#14289B"/>
<stop offset="1" stop-color="#5D6FFF"/>
</linearGradient>
<linearGradient id="paint3_linear_646_2388" x1="74.0002" y1="5.99999" x2="313" y2="75" gradientUnits="userSpaceOnUse">
<stop stop-color="#14289B"/>
<stop offset="1" stop-color="#5D6FFF"/>
</linearGradient>
<linearGradient id="paint4_linear_646_2388" x1="73.9998" y1="5.99999" x2="313" y2="75.0001" gradientUnits="userSpaceOnUse">
<stop stop-color="#14289B"/>
<stop offset="1" stop-color="#5D6FFF"/>
</linearGradient>
<linearGradient id="paint5_linear_646_2388" x1="73.9999" y1="5.99999" x2="313" y2="75.0001" gradientUnits="userSpaceOnUse">
<stop stop-color="#14289B"/>
<stop offset="1" stop-color="#5D6FFF"/>
</linearGradient>
<linearGradient id="paint6_linear_646_2388" x1="74" y1="6" x2="313" y2="75" gradientUnits="userSpaceOnUse">
<stop stop-color="#14289B"/>
<stop offset="1" stop-color="#5D6FFF"/>
</linearGradient>
<linearGradient id="paint7_linear_646_2388" x1="3" y1="70.9999" x2="294" y2="70.9999" gradientUnits="userSpaceOnUse">
<stop stop-color="#5D6FFF"/>
<stop offset="1" stop-color="#5769F5"/>
</linearGradient>
<clipPath id="clip0_646_2388">
<rect width="309" height="71" fill="white"/>
</clipPath>
</defs>
</svg>
