<svg width="235" height="56" viewBox="0 0 235 56" fill="none" xmlns="http://www.w3.org/2000/svg">
<path d="M39.5472 11.1263V5.80268" stroke="url(#paint0_linear_645_1378)" stroke-width="10" stroke-linecap="round"/>
<path d="M6.08417 48.392L6.08417 42.3078" stroke="#5D6FFF" stroke-width="10" stroke-linecap="round"/>
<path d="M84.8742 45.3499H59.6866V8.60635H84.8742V15.9602H67.0405V23.314H79.109V30.6679H67.0405V37.9961H84.8742V45.3499Z" fill="url(#paint1_linear_645_1378)"/>
<path d="M112.496 23.3653L107.371 28.5155C107.115 27.7981 106.765 27.1575 106.321 26.5938C105.877 26.013 105.373 25.5262 104.809 25.1333C104.262 24.7404 103.664 24.4414 103.015 24.2365C102.366 24.0315 101.7 23.929 101.017 23.929C100.06 23.929 99.1548 24.1254 98.3007 24.5183C97.4637 24.9112 96.7291 25.4664 96.0971 26.1838C95.4821 26.8842 94.9953 27.7212 94.6366 28.6949C94.2779 29.6686 94.0985 30.7447 94.0985 31.9234C94.0985 32.88 94.2779 33.7768 94.6366 34.6138C94.9953 35.4508 95.4821 36.1854 96.0971 36.8174C96.7291 37.4494 97.4637 37.9448 98.3007 38.3035C99.1548 38.6623 100.06 38.8416 101.017 38.8416C101.7 38.8416 102.358 38.7477 102.99 38.5598C103.622 38.3719 104.211 38.1071 104.758 37.7655C105.321 37.4067 105.817 36.9797 106.244 36.4843C106.688 35.9718 107.047 35.4081 107.32 34.7932L112.445 39.9434C111.796 40.8659 111.044 41.6943 110.19 42.4289C109.353 43.1634 108.439 43.7869 107.448 44.2994C106.474 44.8118 105.441 45.1962 104.348 45.4524C103.272 45.7257 102.161 45.8624 101.017 45.8624C99.0865 45.8624 97.2672 45.5036 95.559 44.7862C93.8679 44.0517 92.3817 43.0524 91.1006 41.7883C89.8365 40.5242 88.8372 39.0466 88.1027 37.3555C87.3682 35.6644 87.0009 33.8537 87.0009 31.9234C87.0009 29.8223 87.3682 27.8579 88.1027 26.0301C88.8372 24.2023 89.8365 22.6137 91.1006 21.2642C92.3817 19.8976 93.8679 18.8214 95.559 18.0357C97.2672 17.2499 99.0865 16.857 101.017 16.857C102.161 16.857 103.28 17.0022 104.373 17.2926C105.484 17.583 106.534 18.01 107.525 18.5737C108.533 19.1204 109.455 19.7951 110.292 20.598C111.146 21.4008 111.881 22.3233 112.496 23.3653Z" fill="url(#paint2_linear_645_1378)"/>
<path d="M142.039 31.3853C142.039 33.4352 141.672 35.3483 140.938 37.1249C140.203 38.8843 139.204 40.4132 137.94 41.7114C136.676 42.9926 135.189 44.009 133.481 44.7606C131.79 45.4951 129.971 45.8624 128.023 45.8624C126.093 45.8624 124.274 45.4951 122.566 44.7606C120.875 44.009 119.389 42.9926 118.107 41.7114C116.843 40.4132 115.844 38.8843 115.109 37.1249C114.375 35.3483 114.008 33.4352 114.008 31.3853C114.008 29.3013 114.375 27.371 115.109 25.5945C115.844 23.8179 116.843 22.2891 118.107 21.0079C119.389 19.7097 120.875 18.6933 122.566 17.9588C124.274 17.2243 126.093 16.857 128.023 16.857C129.971 16.857 131.79 17.2072 133.481 17.9075C135.189 18.5908 136.676 19.573 137.94 20.8542C139.204 22.1183 140.203 23.6471 140.938 25.4407C141.672 27.2173 142.039 29.1988 142.039 31.3853ZM134.993 31.3853C134.993 30.2579 134.805 29.2415 134.429 28.3362C134.071 27.4137 133.575 26.6279 132.943 25.9788C132.311 25.3126 131.568 24.8087 130.714 24.4671C129.877 24.1083 128.98 23.929 128.023 23.929C127.067 23.929 126.162 24.1083 125.307 24.4671C124.47 24.8087 123.736 25.3126 123.104 25.9788C122.489 26.6279 122.002 27.4137 121.643 28.3362C121.285 29.2415 121.105 30.2579 121.105 31.3853C121.105 32.4444 121.285 33.4266 121.643 34.332C122.002 35.2373 122.489 36.0231 123.104 36.6893C123.736 37.3555 124.47 37.885 125.307 38.2779C126.162 38.6537 127.067 38.8416 128.023 38.8416C128.98 38.8416 129.877 38.6623 130.714 38.3035C131.568 37.9448 132.311 37.4409 132.943 36.7918C133.575 36.1427 134.071 35.3569 134.429 34.4345C134.805 33.512 134.993 32.4956 134.993 31.3853Z" fill="url(#paint3_linear_645_1378)"/>
<path d="M172.428 45.3499H170.737L168.021 41.5833C167.355 42.1812 166.646 42.7449 165.894 43.2744C165.16 43.7869 164.383 44.2396 163.563 44.6325C162.743 45.0083 161.897 45.3072 161.026 45.5293C160.172 45.7513 159.301 45.8624 158.413 45.8624C156.482 45.8624 154.663 45.5036 152.955 44.7862C151.264 44.0517 149.778 43.0438 148.496 41.7627C147.232 40.4644 146.233 38.9356 145.498 37.1761C144.764 35.3996 144.397 33.4693 144.397 31.3853C144.397 29.3184 144.764 27.3966 145.498 25.6201C146.233 23.8436 147.232 22.3062 148.496 21.0079C149.778 19.7097 151.264 18.6933 152.955 17.9588C154.663 17.2243 156.482 16.857 158.413 16.857C159.027 16.857 159.66 16.9082 160.309 17.0107C160.975 17.1132 161.615 17.2841 162.23 17.5232C162.862 17.7453 163.452 18.0442 163.998 18.42C164.545 18.7958 165.006 19.257 165.382 19.8037V6.9921H172.428V45.3499ZM165.382 31.3853C165.382 30.4287 165.194 29.5063 164.818 28.618C164.46 27.7127 163.964 26.9183 163.332 26.2351C162.7 25.5347 161.957 24.9795 161.103 24.5696C160.266 24.1425 159.369 23.929 158.413 23.929C157.456 23.929 156.551 24.0998 155.696 24.4414C154.859 24.7831 154.125 25.2785 153.493 25.9276C152.878 26.5596 152.391 27.3369 152.032 28.2593C151.674 29.1817 151.494 30.2237 151.494 31.3853C151.494 32.3931 151.674 33.3497 152.032 34.2551C152.391 35.1604 152.878 35.9548 153.493 36.638C154.125 37.3213 154.859 37.8594 155.696 38.2523C156.551 38.6452 157.456 38.8416 158.413 38.8416C159.369 38.8416 160.266 38.6367 161.103 38.2267C161.957 37.7996 162.7 37.2445 163.332 36.5612C163.964 35.8608 164.46 35.0665 164.818 34.1782C165.194 33.2729 165.382 32.3419 165.382 31.3853Z" fill="url(#paint4_linear_645_1378)"/>
<path d="M186.034 10.4512C186.034 11.1003 185.906 11.7068 185.65 12.2705C185.411 12.8342 185.078 13.3295 184.651 13.7566C184.224 14.1666 183.72 14.4997 183.139 14.7559C182.575 14.9951 181.969 15.1146 181.32 15.1146C180.67 15.1146 180.056 14.9951 179.475 14.7559C178.911 14.4997 178.416 14.1666 177.989 13.7566C177.579 13.3295 177.246 12.8342 176.989 12.2705C176.75 11.7068 176.631 11.1003 176.631 10.4512C176.631 9.81918 176.75 9.22131 176.989 8.6576C177.246 8.07681 177.579 7.58143 177.989 7.17146C178.416 6.74441 178.911 6.41131 179.475 6.17216C180.056 5.91593 180.67 5.78781 181.32 5.78781C181.969 5.78781 182.575 5.91593 183.139 6.17216C183.72 6.41131 184.224 6.74441 184.651 7.17146C185.078 7.58143 185.411 8.07681 185.65 8.6576C185.906 9.22131 186.034 9.81918 186.034 10.4512ZM184.83 45.3499H177.784V17.9075H184.83V45.3499Z" fill="url(#paint5_linear_645_1378)"/>
<path d="M199.076 45.3499H192.081V24.877H188.673V17.9075H192.081V16.6008C192.081 14.9096 192.397 13.321 193.029 11.8349C193.678 10.3487 194.558 9.05903 195.669 7.96578C196.796 6.85544 198.103 5.98426 199.589 5.35222C201.075 4.7031 202.664 4.37854 204.355 4.37854H209.608V11.348H204.355C203.603 11.348 202.903 11.4847 202.254 11.758C201.622 12.0142 201.066 12.3815 200.588 12.8598C200.127 13.321 199.76 13.8762 199.486 14.5253C199.213 15.1573 199.076 15.8492 199.076 16.6008V17.9075H207.66V24.877H199.076V45.3499Z" fill="url(#paint6_linear_645_1378)"/>
<path d="M219.791 55.9972L217.397 48.7578L221.292 48.809C221.975 48.809 222.633 48.698 223.265 48.4759C223.897 48.2539 224.477 47.9464 225.007 47.5535C225.554 47.1606 226.032 46.6908 226.442 46.1442C226.852 45.6147 227.185 45.0339 227.441 44.4019C226.673 44.7264 225.887 45.051 225.084 45.3755C224.298 45.7001 223.504 45.8624 222.701 45.8624C221.01 45.8624 219.421 45.5634 217.935 44.9656C216.449 44.3677 215.142 43.5221 214.015 42.4289C212.904 41.3185 212.025 39.9776 211.376 38.406C210.743 36.8174 210.427 35.0409 210.427 33.0764V17.9075H217.397V33.0764C217.397 34.0501 217.534 34.9042 217.807 35.6387C218.097 36.3562 218.482 36.9626 218.96 37.458C219.438 37.9363 219.993 38.295 220.625 38.5342C221.275 38.7733 221.966 38.8929 222.701 38.8929C223.418 38.8929 224.093 38.7306 224.725 38.406C225.374 38.0644 225.938 37.6203 226.416 37.0736C226.895 36.527 227.27 35.9121 227.544 35.2288C227.817 34.5284 227.954 33.811 227.954 33.0764V17.9075H235V41.8908C234.983 43.8211 234.607 45.6318 233.873 47.3229C233.138 49.014 232.13 50.4916 230.849 51.7557C229.585 53.0198 228.107 54.0191 226.416 54.7536C224.725 55.4881 222.862 55.9972 220.932 55.9972H219.791Z" fill="url(#paint7_linear_645_1378)"/>
<path d="M28.8158 34.7025H16.6978C7.74211 34.7025 0.19614 27.6631 0.00391031 18.7275C-0.0437254 16.5504 0.344279 14.3857 1.1452 12.3601C1.94613 10.3346 3.14388 8.48885 4.66831 6.9311C6.19274 5.37335 8.01322 4.13485 10.0231 3.28813C12.0331 2.44141 14.192 2.00348 16.3736 2H38.8758C40.0627 2.001 41.2007 2.47235 42.0397 3.31047C42.8786 4.1486 43.3499 5.28491 43.3499 6.4697C43.3499 7.65513 42.8781 8.79202 42.0383 9.63025C41.1986 10.4685 40.0596 10.9394 38.872 10.9394H16.5884C12.1709 10.9394 8.60525 14.5513 8.95579 18.9457C9.10825 20.8044 9.956 22.5377 11.3304 23.8009C12.7049 25.0641 14.5053 25.7646 16.3736 25.7631H28.812V25.7819V34.6837L28.8158 34.7025Z" fill="#14289B"/>
<path d="M28.9432 46.8709H6.75782C5.57064 46.8709 4.43209 46.389 3.59262 45.5313C2.75316 44.6736 2.28156 43.5102 2.28156 42.2972C2.28156 41.0842 2.75316 39.9209 3.59262 39.0632C4.43209 38.2055 5.57064 37.7236 6.75782 37.7236H29.0261C33.4421 37.7236 37.0065 34.0277 36.6561 29.5311C36.5039 27.6318 35.6586 25.8604 34.2878 24.5682C32.9171 23.276 31.121 22.5575 29.256 22.5551H16.8219C16.8185 22.5571 16.8146 22.5582 16.8106 22.5582C16.8066 22.5582 16.8027 22.5571 16.7993 22.5551V13.4271C16.8002 13.4217 16.803 13.4167 16.8071 13.4132C16.8112 13.4097 16.8165 13.4078 16.8219 13.4078H29.256C31.4374 13.4104 33.5965 13.8577 35.6066 14.7237C37.6166 15.5896 39.4374 16.8568 40.9621 18.4509C42.4868 20.045 43.6848 21.9339 44.4859 24.0071C45.287 26.0803 45.6751 28.296 45.6275 30.5243C45.4278 39.6678 37.8845 46.8709 28.9432 46.8709Z" fill="#5D6FFF"/>
<path d="M34.3099 31.6023C35.0253 28.5923 33.1652 25.5723 30.1552 24.8569C27.1453 24.1415 24.1253 26.0016 23.4099 29.0115C22.6945 32.0215 24.5546 35.0415 27.5645 35.7569C30.5745 36.4723 33.5945 34.6122 34.3099 31.6023Z" fill="#5D6FFF"/>
<path d="M16.3513 24.0552C19.5015 24.0552 22.0552 21.5015 22.0552 18.3513C22.0552 15.2011 19.5015 12.6473 16.3513 12.6473C13.2011 12.6473 10.6473 15.2011 10.6473 18.3513C10.6473 21.5015 13.2011 24.0552 16.3513 24.0552Z" fill="#14289B"/>
<path d="M2.28156 48.392H223.594L219.791 55.9972H2.28156V48.392Z" fill="url(#paint8_linear_645_1378)"/>
<defs>
<linearGradient id="paint0_linear_645_1378" x1="39.5472" y1="9.35179" x2="39.5472" y2="16.1543" gradientUnits="userSpaceOnUse">
<stop stop-color="#14289B"/>
<stop offset="1" stop-color="#2438B1"/>
</linearGradient>
<linearGradient id="paint1_linear_645_1378" x1="56.2788" y1="6.56318" x2="238.044" y2="59.0393" gradientUnits="userSpaceOnUse">
<stop stop-color="#14289B"/>
<stop offset="1" stop-color="#5D6FFF"/>
</linearGradient>
<linearGradient id="paint2_linear_645_1378" x1="56.2788" y1="6.56318" x2="238.044" y2="59.0393" gradientUnits="userSpaceOnUse">
<stop stop-color="#14289B"/>
<stop offset="1" stop-color="#5D6FFF"/>
</linearGradient>
<linearGradient id="paint3_linear_645_1378" x1="56.2788" y1="6.56318" x2="238.044" y2="59.0393" gradientUnits="userSpaceOnUse">
<stop stop-color="#14289B"/>
<stop offset="1" stop-color="#5D6FFF"/>
</linearGradient>
<linearGradient id="paint4_linear_645_1378" x1="56.2788" y1="6.56318" x2="238.044" y2="59.0393" gradientUnits="userSpaceOnUse">
<stop stop-color="#14289B"/>
<stop offset="1" stop-color="#5D6FFF"/>
</linearGradient>
<linearGradient id="paint5_linear_645_1378" x1="56.2788" y1="6.56318" x2="238.044" y2="59.0393" gradientUnits="userSpaceOnUse">
<stop stop-color="#14289B"/>
<stop offset="1" stop-color="#5D6FFF"/>
</linearGradient>
<linearGradient id="paint6_linear_645_1378" x1="56.2788" y1="6.56318" x2="238.044" y2="59.0393" gradientUnits="userSpaceOnUse">
<stop stop-color="#14289B"/>
<stop offset="1" stop-color="#5D6FFF"/>
</linearGradient>
<linearGradient id="paint7_linear_645_1378" x1="56.2788" y1="6.56318" x2="238.044" y2="59.0393" gradientUnits="userSpaceOnUse">
<stop stop-color="#14289B"/>
<stop offset="1" stop-color="#5D6FFF"/>
</linearGradient>
<linearGradient id="paint8_linear_645_1378" x1="2.28156" y1="55.9971" x2="223.594" y2="55.9971" gradientUnits="userSpaceOnUse">
<stop stop-color="#5D6FFF"/>
<stop offset="1" stop-color="#5769F5"/>
</linearGradient>
</defs>
</svg>
